PathFileType	3	(X/Y/Z)	C:\Users\koon_\Desktop\
DataRate	CameraRate	NumFrames	NumMarkers	Units	OrigDataRate	OrigDataStartFrame	OrigNumFrames
100.0	100.0	12	27	mm	100.0	2367	3786	
Frame#	Time	get:LFHD			get:RFHD			get:LBHD			get:RBHD			get:C7			get:T10			get:CLAV			get:STRN			get:RBAK			get:LSHO			get:LUPA			get:LELB			get:LFRA			get:LWRA			get:LWRB			get:LFIN			get:RSHO			get:RUPA			get:RELB			get:RFRA			get:RWRA			get:RWRB			get:RFIN			get:LASI			get:RASI			get:LPSI			get:RPSI			
		X1	Y1	Z1	X2	Y2	Z2	X3	Y3	Z3	X4	Y4	Z4	X5	Y5	Z5	X6	Y6	Z6	X7	Y7	Z7	X8	Y8	Z8	X9	Y9	Z9	X10	Y10	Z10	X11	Y11	Z11	X12	Y12	Z12	X13	Y13	Z13	X14	Y14	Z14	X15	Y15	Z15	X16	Y16	Z16	X17	Y17	Z17	X18	Y18	Z18	X19	Y19	Z19	X20	Y20	Z20	X21	Y21	Z21	X22	Y22	Z22	X23	Y23	Z23	X24	Y24	Z24	X25	Y25	Z25	X26	Y26	Z26	X27	Y27	Z27	
2367	23.66	130.47653	1569.9856	-103.57441	-4.0094261	1555.8922	-23.387173	62.548241	1565.6842	-208.01381	-54.787338	1564.2367	-159.21568	-62.987743	1393.1163	-147.99261	-122.30894	1143.371	-203.19641	97.816475	1287.5209	-98.284943	106.61513	1100.1484	-87.612885	-128.6319	1330.4774	-74.605469	57.847366	1370.62	-282.08752	-5.5920711	1241.3276	-354.81363	-142.04356	1113.7024	-362.27075	-142.26118	987.6933	-376.02951	-186.76869	901.13086	-360.50241	-236.28195	935.80402	-399.5173	-260.32504	839.30273	-395.25766	-21.313766	1366.7372	15.018549	78.997551	1185.7123	65.231361	95.424171	1076.3213	81.254555	184.49864	1045.1743	27.890093	251.87958	908.85498	-18.00281	249.5937	905.85864	55.035641	318.0354	873.24384	5.1684489	133.68755	940.25043	-166.85023	-100.91917	906.86121	-21.463015	-46.523354	971.08344	-286.75446	-132.39877	956.71088	-230.66393
2368	23.67	130.13286	1570.0903	-103.33984	-4.4182243	1555.8734	-23.257696	62.056332	1565.5784	-207.57532	-55.130791	1564.1305	-159.08	-63.204124	1393.0497	-148.13075	-121.88335	1143.1407	-202.83759	97.514297	1287.4847	-97.896935	106.22409	1100.0648	-87.107384	-129.00711	1330.5726	-74.75824	58.02964	1370.4188	-281.81662	-4.424161	1240.7393	-354.70505	-140.21935	1112.4924	-363.07141	-139.49808	986.54865	-377.0549	-183.22322	899.69238	-362.16336	-233.39757	934.2196	-401.19168	-256.43573	837.24835	-396.71979	-21.840948	1366.9448	15.093604	78.275932	1185.8666	65.423706	94.745377	1076.4208	81.179398	183.77771	1045.3	27.84169	251.25304	909.17969	-18.41964	248.98235	906.01923	54.732849	317.29196	873.41333	4.6807613	133.48253	940.20233	-166.53297	-101.19948	906.81885	-21.315762	-46.873322	970.9931	-286.4379	-133.88757	957.20087	-230.23207
2369	23.68	129.72047	1570.1638	-103.05377	-4.9014792	1555.926	-23.159119	61.806721	1565.6116	-207.38914	-55.40535	1564.1278	-159.0865	-63.429607	1392.9791	-148.23457	-121.59937	1143.0173	-202.72334	97.105583	1287.4435	-97.425835	105.79284	1100.0313	-86.491173	-129.42918	1330.6497	-75.090973	58.365341	1370.1555	-281.47009	-2.9491189	1240.1271	-354.60077	-138.06584	1111.285	-364.16336	-136.26381	985.4527	-378.65833	-179.1779	898.26892	-364.43716	-229.76479	932.38947	-403.32907	-251.99959	835.24347	-399.27414	-22.640261	1367.09	15.067997	77.489059	1186.1228	65.676712	93.806725	1076.6595	81.555344	182.93207	1045.5367	28.270088	250.35152	909.33746	-17.761906	248.2135	906.27216	55.341671	316.57428	873.73932	5.2972932	133.41299	940.19159	-166.14217	-101.54723	906.78918	-21.138504	-46.96542	970.67749	-285.76114	-133.46162	957.05902	-230.07547
2370	23.69	129.26804	1570.2874	-102.81293	-5.4668641	1556.047	-23.057659	61.52919	1565.6371	-207.20992	-55.738712	1564.0996	-159.13518	-63.635738	1392.9274	-148.66548	-121.49601	1142.9357	-202.90834	96.658165	1287.3927	-96.842583	105.32173	1099.9971	-85.755066	-129.9399	1330.6559	-75.630463	58.866714	1369.9413	-281.05881	-1.1596336	1239.5431	-354.66083	-135.52728	1110.1537	-365.7135	-132.74654	984.38019	-380.7291	-174.98297	896.84271	-367.50165	-225.5177	930.6308	-405.71521	-246.90555	833.32336	-402.89273	-23.613375	1367.3049	14.99122	76.295753	1186.4453	66.126541	92.653633	1076.9359	82.166893	182.01521	1045.8656	29.403795	250.09584	909.92059	-16.289602	247.31349	906.71252	56.820599	315.88046	874.13336	7.0721831	133.29326	940.13208	-165.53349	-101.95939	906.70996	-20.987789	-46.335739	970.7085	-286.25076	-133.59216	956.73621	-230.15039
2371	23.7	128.71967	1570.3921	-102.53304	-6.1823277	1556.1689	-23.113012	61.427036	1565.7552	-207.32477	-56.16798	1564.1353	-159.20499	-63.878349	1392.8341	-149.14552	-121.35259	1142.8292	-203.28189	96.179451	1287.3851	-96.068443	104.78584	1099.9774	-84.750473	-130.51703	1330.6198	-76.316513	59.55262	1369.6632	-280.55496	1.0489438	1238.9771	-354.88397	-132.71802	1108.9	-367.30945	-128.80487	983.39349	-383.3338	-170.06477	895.4046	-371.00983	-221.30997	929.12445	-409.17953	-241.14308	831.76434	-407.89099	-24.939207	1367.4409	14.729082	74.949753	1186.8181	66.69693	91.290794	1077.41	83.316124	181.01985	1046.3191	31.170773	249.64787	910.5011	-13.846557	246.14389	907.13861	59.285221	315.237	874.60034	10.024622	133.28401	940.06042	-164.90927	-102.40109	906.72949	-20.790123	-46.034424	971.12909	-286.56567	-134.26221	956.63379	-230.01552
2372	23.71	128.12276	1570.4832	-102.23611	-7.0389843	1556.3724	-23.225811	61.135696	1565.7767	-207.17636	-56.658028	1564.166	-159.33365	-64.139793	1392.7125	-149.65021	-121.09408	1142.7299	-203.94261	95.691994	1287.4067	-95.184471	104.1937	1099.9071	-83.704765	-131.30528	1330.548	-77.368279	60.397671	1369.3767	-280.01035	3.2033191	1238.4789	-354.95352	-129.46806	1107.7238	-369.3851	-124.46485	982.38928	-386.26718	-164.88611	893.95605	-375.18536	-215.91489	927.46173	-413.11475	-234.91867	830.10986	-413.41803	-26.452747	1367.5703	14.486429	73.237976	1187.33	67.60733	89.587898	1077.9393	84.670547	179.99242	1046.9604	33.585709	249.32373	911.22876	-10.536718	244.89775	907.81458	62.55582	314.54532	875.26648	14.310043	133.23611	939.95428	-164.14249	-102.92287	906.71753	-20.604403	-45.839531	970.78033	-285.97931	-134.21294	956.56604	-230.08347
2373	23.72	127.45219	1570.6091	-101.92681	-7.8874025	1556.5844	-23.271318	60.821907	1565.76	-207.10446	-57.123924	1564.1942	-159.48914	-64.435799	1392.5447	-150.19513	-120.69605	1142.5538	-204.5424	95.099457	1287.5342	-93.990334	103.97323	1100.1771	-82.610634	-132.13387	1330.4312	-78.458626	61.406448	1368.9653	-279.35397	6.0628548	1238.0172	-355.52609	-125.68243	1106.4576	-372.06427	-119.64738	981.32953	-389.49695	-159.26227	892.41803	-379.73981	-210.84311	925.93463	-417.29202	-228.0473	828.72113	-419.9628	-28.276772	1367.6124	14.004912	71.195709	1187.932	68.640038	87.611885	1078.6403	86.334023	178.69043	1047.7112	36.503971	248.97548	912.01575	-6.1823058	243.42761	908.75555	66.68454	313.85135	876.10956	19.619837	133.26811	939.86969	-163.23337	-103.46866	906.77472	-20.503279	-45.443813	970.63684	-285.80341	-133.75359	956.26855	-230.10461
2374	23.73	126.73406	1570.7469	-101.56388	-8.9329386	1556.8184	-23.422274	60.524853	1565.7004	-207.02994	-57.510059	1564.1156	-159.84076	-64.740494	1392.3035	-151.10487	-120.17364	1142.3094	-205.25174	94.422028	1287.6877	-92.88974	103.41728	1100.2551	-81.216431	-133.05956	1330.2397	-79.875862	62.490425	1368.5195	-278.60037	8.9784527	1237.4022	-355.88892	-121.59521	1105.0355	-374.56799	-114.29539	980.12329	-393.01544	-153.08038	890.76117	-384.69272	-204.65709	924.13763	-421.8649	-220.51901	827.28918	-427.08441	-30.421164	1367.6266	13.481008	68.872612	1188.595	69.889786	85.302353	1079.3536	88.37487	177.23438	1048.6154	40.012512	248.59401	913.0163	-1.104167	241.75659	909.84424	71.66938	313.11807	877.22058	25.959427	133.39391	939.78796	-162.19278	-104.25339	906.95667	-20.95631	-44.813969	970.57422	-285.75302	-133.53557	956.08624	-230.29419
2375	23.74	125.97675	1570.8851	-101.16724	-10.008331	1557.1407	-23.612349	60.003525	1565.4366	-206.66054	-58.071255	1564.0851	-160.26324	-64.990089	1392.0371	-151.85838	-119.4922	1142.0409	-206.13525	93.654495	1287.7141	-91.983055	102.17432	1099.9384	-79.688553	-134.12524	1329.9945	-81.566635	63.703327	1368.0123	-277.80341	11.980295	1236.6266	-356.04666	-116.86475	1103.4091	-377.19366	-108.20452	978.75922	-396.698	-146.24632	888.85236	-389.60181	-197.61214	922.08893	-427.21365	-212.31081	825.82727	-434.6051	-32.792816	1367.6294	12.969948	66.147919	1189.3146	71.330353	82.640289	1080.2583	90.726051	175.48047	1049.6654	43.958157	248.07167	914.2016	4.7798791	239.94655	911.22375	77.349503	312.19501	878.77777	33.35622	133.57875	939.70294	-161.03903	-104.96141	907.00439	-21.134357	-44.086212	970.46057	-285.7652	-133.09944	955.97748	-230.78902
2376	23.75	125.15268	1571.0492	-100.72881	-11.204466	1557.4697	-23.743362	59.635315	1565.2372	-206.52882	-58.644588	1563.985	-160.65959	-65.307053	1391.7363	-152.90573	-118.76218	1141.8536	-207.354	92.71244	1287.7852	-90.249817	101.38719	1099.9562	-78.090187	-135.23874	1329.6868	-83.414085	65.031837	1367.4149	-276.99988	15.562004	1235.8455	-356.35193	-111.67955	1101.4501	-380.23532	-101.41663	977.08942	-400.47379	-138.44276	886.82684	-395.05923	-189.93718	920.0249	-432.35059	-203.133	824.24811	-442.36005	-35.415062	1367.7037	12.3901	63.036972	1190.0238	72.92511	79.604919	1081.2233	93.263649	173.45959	1050.8041	48.539394	247.42021	915.57312	11.41164	237.73582	912.78455	83.891365	311.13156	880.56873	41.628269	133.74301	939.58569	-159.76176	-105.72455	907.05377	-21.473389	-43.164375	970.30292	-285.79364	-132.56351	955.88312	-231.38715
2377	23.76	124.22976	1571.2587	-100.31222	-12.50869	1557.8112	-24.061579	59.290062	1565.0342	-206.41754	-59.1679	1563.7917	-161.26422	-65.600113	1391.4302	-154.15327	-117.89235	1141.5117	-208.51695	91.786575	1287.944	-88.767395	100.46227	1100.0231	-76.410225	-136.4617	1329.3732	-85.537796	66.556419	1366.765	-276.10776	19.617382	1235.0143	-356.88107	-105.61105	1099.3333	-384.15857	-93.77478	975.24561	-404.26474	-131.05411	884.33929	-399.20358	-180.67375	917.51086	-438.27802	-192.81847	822.47797	-450.30243	-38.263046	1367.7648	11.597097	59.510338	1190.8231	74.777885	76.16626	1082.2874	96.066887	171.16949	1052.1395	53.617977	246.59119	917.26624	18.845869	235.17836	914.5238	91.047012	309.76544	882.73999	50.8815	133.83725	939.48761	-158.45972	-106.62948	907.14429	-21.761829	-42.086903	970.32544	-286.15411	-132.64824	956.03021	-232.31699
2378	23.77	123.31667	1571.4896	-99.842117	-13.88269	1558.1924	-24.420948	59.220039	1564.9368	-206.61606	-59.689911	1563.6423	-161.94508	-65.948784	1391.1105	-155.51656	-116.98195	1141.14	-209.7533	90.817947	1288.1224	-87.256691	99.686462	1100.311	-74.668167	-137.65065	1329.0378	-87.800896	68.143456	1366.1373	-275.18808	23.758005	1234.1187	-357.08838	-99.093163	1097.0962	-387.64111	-85.122086	973.40723	-408.32043	-121.79665	881.98053	-404.33847	-170.83412	914.84705	-444.10574	-181.1512	820.76459	-458.5051	-41.339893	1367.8643	10.675244	55.628349	1191.6553	76.785378	72.254341	1083.3102	99.16938	168.42902	1053.599	59.153584	245.44478	919.11279	27.180462	232.22055	916.40717	98.917458	308.14835	885.21869	61.074589	134.04419	939.34149	-157.03793	-107.49991	907.28998	-21.297157	-40.934101	970.04712	-285.95059	-132.21068	955.88495	-233.16397
